<svg width="1920" height="521" viewBox="0 0 1920 521" fill="none" xmlns="http://www.w3.org/2000/svg">
<g clip-path="url(#clip0_25_1000)">
<path d="M0 301.601L45.8667 307.274C91.7333 313.005 183.467 324.351 274.773 314.742C366.293 305.074 457.173 274.393 548.693 263.51C640 252.569 731.733 261.484 823.04 265.884C914.56 270.341 1005.44 270.341 1096.96 272.251C1188.27 274.22 1280 278.04 1371.31 282.671C1462.83 287.302 1553.71 292.744 1645.23 301.89C1736.53 311.037 1828.27 324.004 1874.13 330.43L1920 336.913V521.579H1874.13C1828.27 521.579 1736.53 521.579 1645.23 521.579C1553.71 521.579 1462.83 521.579 1371.31 521.579C1280 521.579 1188.27 521.579 1096.96 521.579C1005.44 521.579 914.56 521.579 823.04 521.579C731.733 521.579 640 521.579 548.693 521.579C457.173 521.579 366.293 521.579 274.773 521.579C183.467 521.579 91.7333 521.579 45.8667 521.579H0V301.601Z" fill="#4C9457"/>
<path d="M0 332.861L45.8667 325.741C91.7333 318.563 183.467 304.322 274.773 296.102C366.293 287.881 457.173 285.797 548.693 299.575C640 313.353 731.733 343.107 823.04 350.98C914.56 358.911 1005.44 345.018 1096.96 333.556C1188.27 322.036 1280 313.005 1371.31 310.574C1462.83 308.143 1553.71 312.426 1645.23 306.695C1736.53 301.022 1828.27 285.392 1874.13 277.577L1920 269.762V521.579H1874.13C1828.27 521.579 1736.53 521.579 1645.23 521.579C1553.71 521.579 1462.83 521.579 1371.31 521.579C1280 521.579 1188.27 521.579 1096.96 521.579C1005.44 521.579 914.56 521.579 823.04 521.579C731.733 521.579 640 521.579 548.693 521.579C457.173 521.579 366.293 521.579 274.773 521.579C183.467 521.579 91.7333 521.579 45.8667 521.579H0V332.861Z" fill="#417E4A"/>
<path d="M0 373.962L45.8667 377.146C91.7333 380.33 183.467 386.698 274.773 380.156C366.293 373.557 457.173 354.106 548.693 343.571C640 333.035 731.733 331.53 823.04 343.976C914.56 356.422 1005.44 382.819 1096.96 390.866C1188.27 398.854 1280 388.434 1371.31 377.03C1462.83 365.684 1553.71 353.296 1645.23 353.296C1736.53 353.296 1828.27 365.684 1874.13 371.82L1920 378.014V521.579H1874.13C1828.27 521.579 1736.53 521.579 1645.23 521.579C1553.71 521.579 1462.83 521.579 1371.31 521.579C1280 521.579 1188.27 521.579 1096.96 521.579C1005.44 521.579 914.56 521.579 823.04 521.579C731.733 521.579 640 521.579 548.693 521.579C457.173 521.579 366.293 521.579 274.773 521.579C183.467 521.579 91.7333 521.579 45.8667 521.579H0V373.962Z" fill="#36683E"/>
<path d="M0 408.117L45.8667 406.554C91.7333 405.049 183.467 401.923 274.773 403.601C366.293 405.222 457.173 411.59 548.693 417.668C640 423.747 731.733 429.536 823.04 425.194C914.56 420.852 1005.44 406.38 1096.96 405.685C1188.27 405.049 1280 418.131 1371.31 417.668C1462.83 417.205 1553.71 403.08 1645.23 395.497C1736.53 387.856 1828.27 386.698 1874.13 386.119L1920 385.54V521.579H1874.13C1828.27 521.579 1736.53 521.579 1645.23 521.579C1553.71 521.579 1462.83 521.579 1371.31 521.579C1280 521.579 1188.27 521.579 1096.96 521.579C1005.44 521.579 914.56 521.579 823.04 521.579C731.733 521.579 640 521.579 548.693 521.579C457.173 521.579 366.293 521.579 274.773 521.579C183.467 521.579 91.7333 521.579 45.8667 521.579H0V408.117Z" fill="#2C5432"/>
<path d="M0 470.637L45.8667 466.874C91.7333 463.111 183.467 455.586 274.773 455.007C366.293 454.428 457.173 460.796 548.693 465.253C640 469.653 731.733 472.2 823.04 472.952C914.56 473.705 1005.44 472.779 1096.96 470.231C1188.27 467.742 1280 463.69 1371.31 462.706C1462.83 461.78 1553.71 463.864 1645.23 463.516C1736.53 463.111 1828.27 460.217 1874.13 458.769L1920 457.322V521.579H1874.13C1828.27 521.579 1736.53 521.579 1645.23 521.579C1553.71 521.579 1462.83 521.579 1371.31 521.579C1280 521.579 1188.27 521.579 1096.96 521.579C1005.44 521.579 914.56 521.579 823.04 521.579C731.733 521.579 640 521.579 548.693 521.579C457.173 521.579 366.293 521.579 274.773 521.579C183.467 521.579 91.7333 521.579 45.8667 521.579H0V470.637Z" fill="#224026"/>
</g>
<defs>
<clipPath id="clip0_25_1000">
<rect width="1920" height="521" fill="white"/>
</clipPath>
</defs>
</svg>
