<svg id="visual" viewBox="0 0 900 600" width="900" height="600" xmlns="http://www.w3.org/2000/svg" xmlns:xlink="http://www.w3.org/1999/xlink" version="1.1"><path d="M0 359L21.5 364.7C43 370.3 86 381.7 128.8 385.7C171.7 389.7 214.3 386.3 257.2 394C300 401.7 343 420.3 385.8 421C428.7 421.7 471.3 404.3 514.2 400C557 395.7 600 404.3 642.8 407.7C685.7 411 728.3 409 771.2 399.8C814 390.7 857 374.3 878.5 366.2L900 358L900 601L878.5 601C857 601 814 601 771.2 601C728.3 601 685.7 601 642.8 601C600 601 557 601 514.2 601C471.3 601 428.7 601 385.8 601C343 601 300 601 257.2 601C214.3 601 171.7 601 128.8 601C86 601 43 601 21.5 601L0 601Z" fill="#2e473b"></path><path d="M0 414L21.5 411C43 408 86 402 128.8 399.5C171.7 397 214.3 398 257.2 410.8C300 423.7 343 448.3 385.8 449.3C428.7 450.3 471.3 427.7 514.2 421.2C557 414.7 600 424.3 642.8 430.5C685.7 436.7 728.3 439.3 771.2 446.5C814 453.7 857 465.3 878.5 471.2L900 477L900 601L878.5 601C857 601 814 601 771.2 601C728.3 601 685.7 601 642.8 601C600 601 557 601 514.2 601C471.3 601 428.7 601 385.8 601C343 601 300 601 257.2 601C214.3 601 171.7 601 128.8 601C86 601 43 601 21.5 601L0 601Z" fill="#617060"></path><path d="M0 507L21.5 505.3C43 503.7 86 500.3 128.8 492.5C171.7 484.7 214.3 472.3 257.2 472.2C300 472 343 484 385.8 487.8C428.7 491.7 471.3 487.3 514.2 478.7C557 470 600 457 642.8 456.8C685.7 456.7 728.3 469.3 771.2 477.8C814 486.3 857 490.7 878.5 492.8L900 495L900 601L878.5 601C857 601 814 601 771.2 601C728.3 601 685.7 601 642.8 601C600 601 557 601 514.2 601C471.3 601 428.7 601 385.8 601C343 601 300 601 257.2 601C214.3 601 171.7 601 128.8 601C86 601 43 601 21.5 601L0 601Z" fill="#969b8c"></path><path d="M0 538L21.5 537.8C43 537.7 86 537.3 128.8 529.3C171.7 521.3 214.3 505.7 257.2 498.5C300 491.3 343 492.7 385.8 494.5C428.7 496.3 471.3 498.7 514.2 498.3C557 498 600 495 642.8 500.8C685.7 506.7 728.3 521.3 771.2 526.3C814 531.3 857 526.7 878.5 524.3L900 522L900 601L878.5 601C857 601 814 601 771.2 601C728.3 601 685.7 601 642.8 601C600 601 557 601 514.2 601C471.3 601 428.7 601 385.8 601C343 601 300 601 257.2 601C214.3 601 171.7 601 128.8 601C86 601 43 601 21.5 601L0 601Z" fill="#cbc9bd"></path><path d="M0 550L21.5 552.3C43 554.7 86 559.3 128.8 558.8C171.7 558.3 214.3 552.7 257.2 552.5C300 552.3 343 557.7 385.8 559.5C428.7 561.3 471.3 559.7 514.2 554C557 548.3 600 538.7 642.8 534.7C685.7 530.7 728.3 532.3 771.2 532.2C814 532 857 530 878.5 529L900 528L900 601L878.5 601C857 601 814 601 771.2 601C728.3 601 685.7 601 642.8 601C600 601 557 601 514.2 601C471.3 601 428.7 601 385.8 601C343 601 300 601 257.2 601C214.3 601 171.7 601 128.8 601C86 601 43 601 21.5 601L0 601Z" fill="#fffaf3"></path></svg>