<svg xmlns="http://www.w3.org/2000/svg" version="1.1" xmlns:xlink="http://www.w3.org/1999/xlink" width="60" height="60"><svg width="60" height="60" viewBox="0 0 60 60" fill="none" xmlns="http://www.w3.org/2000/svg">
<circle cx="30" cy="30" r="30" fill="#4C9457"></circle>
<line x1="20.9477" y1="30.8865" x2="46.2222" y2="19.2394" stroke="white" stroke-width="0.25"></line>
<path d="M44.8726 17.4412C45.9472 17.4323 49.7159 17.3137 49.7159 17.3137C48.8977 19.3391 43.9805 23.9412 45.5099 21.3922C47.0393 18.8431 45.7648 18.8431 45.7648 18.8431C41.3853 18.0245 43.798 17.45 44.8726 17.4412Z" fill="white" stroke="white" stroke-width="0.25"></path>
<circle cx="50.098" cy="15.2745" r="1.14951" stroke="white" stroke-width="0.25"></circle>
<path d="M12.926 31.759C13.8793 31.759 14.6073 31.967 15.11 32.383C15.6213 32.7903 15.877 33.4187 15.877 34.268V39H14.525L14.148 38.038H14.096C13.8967 38.2893 13.6887 38.4973 13.472 38.662C13.264 38.8267 13.0213 38.9437 12.744 39.013C12.4753 39.091 12.1417 39.13 11.743 39.13C11.327 39.13 10.95 39.052 10.612 38.896C10.2827 38.7313 10.0227 38.4843 9.832 38.155C9.64133 37.817 9.546 37.3923 9.546 36.881C9.546 36.127 9.81033 35.5723 10.339 35.217C10.8677 34.853 11.6607 34.6537 12.718 34.619L13.953 34.58V34.268C13.953 33.8953 13.8533 33.6223 13.654 33.449C13.4633 33.2757 13.1947 33.189 12.848 33.189C12.5013 33.189 12.1633 33.241 11.834 33.345C11.5047 33.4403 11.1753 33.5617 10.846 33.709L10.209 32.396C10.5903 32.1967 11.0107 32.0407 11.47 31.928C11.938 31.8153 12.4233 31.759 12.926 31.759ZM13.199 35.737C12.575 35.7543 12.1417 35.867 11.899 36.075C11.6563 36.283 11.535 36.556 11.535 36.894C11.535 37.1887 11.6217 37.401 11.795 37.531C11.9683 37.6523 12.1937 37.713 12.471 37.713C12.887 37.713 13.238 37.5917 13.524 37.349C13.81 37.0977 13.953 36.7467 13.953 36.296V35.711L13.199 35.737ZM19.8094 39H17.8724V29.12H19.8094V39ZM26.7733 39H21.1703V37.856L24.4593 33.384H21.3653V31.902H26.6563V33.163L23.4583 37.518H26.7733V39ZM30.118 31.135C30.118 31.4817 30.105 31.8153 30.079 32.136C30.0617 32.4567 30.0443 32.682 30.027 32.812H30.131C30.287 32.5693 30.469 32.3743 30.677 32.227C30.885 32.071 31.1147 31.9583 31.366 31.889C31.626 31.811 31.899 31.772 32.185 31.772C32.6963 31.772 33.1427 31.863 33.524 32.045C33.9053 32.227 34.2 32.5087 34.408 32.89C34.6247 33.2713 34.733 33.7653 34.733 34.372V39H32.796V34.853C32.796 34.3417 32.7007 33.9603 32.51 33.709C32.328 33.449 32.042 33.319 31.652 33.319C31.262 33.319 30.9543 33.41 30.729 33.592C30.5123 33.774 30.3563 34.0383 30.261 34.385C30.1657 34.7317 30.118 35.1563 30.118 35.659V39H28.181V29.12H30.118V31.135ZM39.6499 31.772C40.3086 31.772 40.8719 31.8977 41.3399 32.149C41.8166 32.4003 42.1849 32.7643 42.4449 33.241C42.7049 33.7177 42.8349 34.3027 42.8349 34.996V35.932H38.2589C38.2763 36.478 38.4366 36.907 38.7399 37.219C39.0519 37.531 39.4809 37.687 40.0269 37.687C40.4863 37.687 40.9023 37.6437 41.2749 37.557C41.6476 37.4617 42.0333 37.3187 42.4319 37.128V38.623C42.0853 38.7963 41.7169 38.922 41.3269 39C40.9456 39.0867 40.4819 39.13 39.9359 39.13C39.2253 39.13 38.5969 39 38.0509 38.74C37.5049 38.4713 37.0759 38.0683 36.7639 37.531C36.4519 36.9937 36.2959 36.3177 36.2959 35.503C36.2959 34.671 36.4346 33.982 36.7119 33.436C36.9979 32.8813 37.3923 32.4653 37.8949 32.188C38.3976 31.9107 38.9826 31.772 39.6499 31.772ZM39.6629 33.15C39.2903 33.15 38.9783 33.2713 38.7269 33.514C38.4843 33.7567 38.3413 34.1337 38.2979 34.645H41.0149C41.0149 34.359 40.9629 34.1033 40.8589 33.878C40.7636 33.6527 40.6163 33.475 40.4169 33.345C40.2176 33.215 39.9663 33.15 39.6629 33.15ZM48.3706 31.772C48.4659 31.772 48.5786 31.7763 48.7086 31.785C48.8386 31.7937 48.9426 31.8067 49.0206 31.824L48.8776 33.644C48.8169 33.6267 48.7259 33.6137 48.6046 33.605C48.4919 33.5877 48.3923 33.579 48.3056 33.579C48.0543 33.579 47.8116 33.6137 47.5776 33.683C47.3436 33.7437 47.1313 33.8433 46.9406 33.982C46.7586 34.1207 46.6113 34.307 46.4986 34.541C46.3946 34.7663 46.3426 35.048 46.3426 35.386V39H44.4056V31.902H45.8746L46.1606 33.098H46.2516C46.3903 32.8553 46.5636 32.6343 46.7716 32.435C46.9796 32.2357 47.2179 32.0753 47.4866 31.954C47.7639 31.8327 48.0586 31.772 48.3706 31.772Z" fill="white"></path>
</svg><style>@media (prefers-color-scheme: light) { :root { filter: none; } }
@media (prefers-color-scheme: dark) { :root { filter: none; } }
</style></svg>